<svg xmlns="http://www.w3.org/2000/svg" xmlns:xlink="http://www.w3.org/1999/xlink" width="500" zoomAndPan="magnify" viewBox="0 0 375 374.999991" height="500" preserveAspectRatio="xMidYMid meet" version="1.0"><defs><g/><clipPath id="c34c50c635"><path d="M 24.398438 13.328125 L 350.648438 13.328125 L 350.648438 339.578125 L 24.398438 339.578125 Z M 24.398438 13.328125 " clip-rule="nonzero"/></clipPath></defs><g fill="#2d5205" fill-opacity="1"><g transform="translate(71.344737, 264.153062)"><g><path d="M 82.796875 -129.257812 L 61.949219 -71.082031 L 30.972656 -157.648438 C 30.777344 -158.445312 29.980469 -158.839844 28.988281 -158.839844 L 1.984375 -158.839844 C 0.398438 -158.839844 -0.398438 -157.648438 0.199219 -156.457031 L 59.960938 -0.992188 C 60.757812 0.398438 63.140625 0.398438 63.734375 -0.992188 L 113.375 -129.257812 Z M 82.796875 -129.257812 "/></g></g></g><g fill="#2d5205" fill-opacity="1"><g transform="translate(105.27673, 256.534421)"><g><path d="M 125.3125 -2.394531 L 64.652344 -158.4375 C 64.054688 -160.035156 61.261719 -160.035156 60.660156 -158.4375 L 0.199219 -2.394531 C -0.398438 -1.199219 0.398438 0 2.195312 0 L 29.53125 0 C 30.332031 0 31.328125 -0.398438 31.527344 -1.199219 L 62.65625 -90.195312 L 94.183594 -1.199219 C 94.382812 -0.398438 95.382812 0 95.980469 0 L 123.519531 0 C 124.914062 0 125.914062 -1.199219 125.3125 -2.394531 Z M 125.3125 -2.394531 "/></g></g></g><g fill="#9d003a" fill-opacity="1"><g transform="translate(138.374072, 196.534493)"><g><path d="M 149.773438 33.605469 L 87.976562 33.90625 L 158.734375 -24.800781 C 159.414062 -25.261719 159.515625 -26.144531 159.175781 -27.074219 L 149.941406 -52.449219 C 149.398438 -53.941406 148.007812 -54.28125 147.09375 -53.316406 L 21.4375 56.007812 C 20.402344 57.230469 21.21875 59.46875 22.726562 59.550781 L 160.230469 62.335938 Z M 149.773438 33.605469 "/></g></g></g><g fill="#f7de32" fill-opacity="1"><g transform="translate(201.573756, 136.872853)"><g><path d="M 2.296875 0 L 0 -8.734375 L 2.34375 -8.734375 L 3.25 -4.40625 C 3.289062 -4.257812 3.332031 -4.0625 3.375 -3.8125 C 3.414062 -3.5625 3.488281 -3.078125 3.59375 -2.359375 C 3.625 -2.535156 3.675781 -2.875 3.75 -3.375 C 3.832031 -3.882812 3.890625 -4.226562 3.921875 -4.40625 L 4.8125 -8.734375 L 7.078125 -8.734375 L 7.984375 -4.40625 C 8.023438 -4.257812 8.066406 -4.0625 8.109375 -3.8125 C 8.148438 -3.5625 8.222656 -3.078125 8.328125 -2.359375 C 8.347656 -2.535156 8.398438 -2.875 8.484375 -3.375 C 8.566406 -3.882812 8.625 -4.226562 8.65625 -4.40625 L 9.546875 -8.734375 L 11.8125 -8.734375 L 9.53125 0 L 7.046875 0 L 6.484375 -2.640625 C 6.390625 -3.085938 6.296875 -3.554688 6.203125 -4.046875 C 6.109375 -4.546875 6.015625 -5.09375 5.921875 -5.6875 C 5.765625 -4.851562 5.644531 -4.226562 5.5625 -3.8125 C 5.476562 -3.394531 5.398438 -3.003906 5.328125 -2.640625 L 4.78125 0 Z M 2.296875 0 "/></g></g></g><g fill="#f7de32" fill-opacity="1"><g transform="translate(220.987998, 136.872853)"><g><path d="M 6.6875 -2.015625 L 6.6875 0 L 0.671875 0 L 0.671875 -8.734375 L 6.5625 -8.734375 L 6.5625 -6.78125 L 2.828125 -6.78125 L 2.828125 -5.328125 L 6.046875 -5.328125 L 6.046875 -3.515625 L 2.828125 -3.515625 L 2.828125 -2.015625 Z M 6.6875 -2.015625 "/></g></g></g><g fill="#f7de32" fill-opacity="1"><g transform="translate(235.613095, 136.872853)"><g><path d="M 7.46875 -2.5625 C 7.46875 -1.675781 7.210938 -1.023438 6.703125 -0.609375 C 6.191406 -0.203125 5.382812 0 4.28125 0 L 0.671875 0 L 0.671875 -8.734375 L 4.28125 -8.734375 C 5.28125 -8.734375 5.988281 -8.554688 6.40625 -8.203125 C 6.832031 -7.859375 7.046875 -7.273438 7.046875 -6.453125 C 7.046875 -5.941406 6.972656 -5.546875 6.828125 -5.265625 C 6.691406 -4.992188 6.414062 -4.785156 6 -4.640625 C 6.5 -4.535156 6.867188 -4.3125 7.109375 -3.96875 C 7.347656 -3.625 7.46875 -3.15625 7.46875 -2.5625 Z M 5.046875 -6.140625 C 5.046875 -6.441406 4.988281 -6.65625 4.875 -6.78125 C 4.757812 -6.90625 4.5625 -6.96875 4.28125 -6.96875 L 2.828125 -6.96875 L 2.828125 -5.1875 L 4.28125 -5.1875 C 4.5625 -5.1875 4.757812 -5.257812 4.875 -5.40625 C 4.988281 -5.550781 5.046875 -5.796875 5.046875 -6.140625 Z M 5.390625 -2.703125 C 5.390625 -3.035156 5.304688 -3.269531 5.140625 -3.40625 C 4.972656 -3.539062 4.6875 -3.609375 4.28125 -3.609375 L 2.828125 -3.609375 L 2.828125 -1.84375 L 4.28125 -1.84375 C 4.6875 -1.84375 4.972656 -1.90625 5.140625 -2.03125 C 5.304688 -2.164062 5.390625 -2.390625 5.390625 -2.703125 Z M 5.390625 -2.703125 "/></g></g></g><g fill="#f7de32" fill-opacity="1"><g transform="translate(250.962133, 136.872853)"><g><path d="M 2.421875 0 L 0.40625 0 L 0.40625 -1.921875 L 2.421875 -1.921875 Z M 2.421875 0 "/></g></g></g><g fill="#9d003a" fill-opacity="1"><g transform="translate(261.374533, 136.872853)"><g><path d="M 6.234375 -2.015625 L 6.234375 0 L 0.671875 0 L 0.671875 -8.734375 L 2.828125 -8.734375 L 2.828125 -2.015625 Z M 6.234375 -2.015625 "/></g></g></g><g clip-path="url(#c34c50c635)"><path fill="#f7de32" d="M 187.523438 339.578125 C 97.402344 339.578125 24.398438 266.070312 24.398438 176.453125 C 24.398438 86.835938 97.402344 13.328125 187.523438 13.328125 C 277.644531 13.328125 350.648438 86.332031 350.648438 176.453125 C 350.648438 266.574219 277.140625 339.578125 187.523438 339.578125 Z M 187.523438 23.398438 C 102.9375 23.398438 34.464844 91.871094 34.464844 176.453125 C 34.464844 261.035156 102.9375 329.507812 187.523438 329.507812 C 272.105469 329.507812 340.578125 261.035156 340.578125 176.453125 C 340.578125 91.871094 271.601562 23.398438 187.523438 23.398438 Z M 187.523438 23.398438 " fill-opacity="1" fill-rule="nonzero"/></g></svg>