<svg xmlns="http://www.w3.org/2000/svg" xmlns:xlink="http://www.w3.org/1999/xlink" width="500" zoomAndPan="magnify" viewBox="0 0 375 374.999991" height="500" preserveAspectRatio="xMidYMid meet" version="1.0"><defs><clipPath id="6a21f04880"><path d="M 0 3.683594 L 371.96875 3.683594 L 371.96875 375 L 0 375 Z M 0 3.683594 " clip-rule="nonzero"/></clipPath><clipPath id="6cb9839d89"><path d="M 185.835938 3.683594 C 83.203125 3.683594 0 86.808594 0 189.34375 C 0 291.878906 83.203125 375 185.835938 375 C 288.472656 375 371.671875 291.878906 371.671875 189.34375 C 371.671875 86.808594 288.472656 3.683594 185.835938 3.683594 " clip-rule="nonzero"/></clipPath><clipPath id="2b643e2108"><path d="M 46.683594 10.558594 L 324.933594 10.558594 L 324.933594 342.808594 L 46.683594 342.808594 Z M 46.683594 10.558594 " clip-rule="nonzero"/></clipPath></defs><g clip-path="url(#6a21f04880)"><g clip-path="url(#6cb9839d89)"><path fill="#3479f1" d="M 0 3.683594 L 371.96875 3.683594 L 371.96875 374.921875 L 0 374.921875 Z M 0 3.683594 " fill-opacity="1" fill-rule="nonzero"/></g></g><path fill="#f5fff9" d="M 238.9375 109.710938 C 238.9375 80.414062 215.105469 56.578125 185.808594 56.578125 C 156.511719 56.578125 132.679688 80.414062 132.679688 109.710938 C 132.679688 139.003906 156.511719 162.839844 185.808594 162.839844 C 215.105469 162.839844 238.9375 139.003906 238.9375 109.710938 Z M 154.222656 109.710938 C 154.222656 92.292969 168.394531 78.125 185.808594 78.125 C 203.226562 78.125 217.394531 92.292969 217.394531 109.710938 C 217.394531 127.125 203.226562 141.292969 185.808594 141.292969 C 168.394531 141.292969 154.222656 127.125 154.222656 109.710938 Z M 154.222656 109.710938 " fill-opacity="1" fill-rule="nonzero"/><g clip-path="url(#2b643e2108)"><path fill="#f5fff9" d="M 324.898438 292.660156 C 324.898438 278.660156 313.261719 267.054688 290.304688 258.167969 C 275.425781 252.410156 256.578125 248.082031 235.128906 245.441406 C 237.539062 241.53125 239.972656 237.53125 242.402344 233.46875 C 274.832031 179.203125 291.273438 139.6875 291.273438 116.027344 C 291.273438 57.871094 243.960938 10.558594 185.808594 10.558594 C 127.65625 10.558594 80.34375 57.875 80.34375 116.027344 C 80.34375 139.691406 96.785156 179.203125 129.214844 233.46875 C 131.644531 237.53125 134.074219 241.53125 136.484375 245.441406 C 114.925781 248.097656 96 252.457031 81.097656 258.253906 C 58.285156 267.128906 46.71875 278.707031 46.71875 292.660156 C 46.71875 303.734375 54.558594 319.339844 91.914062 330.800781 C 117.148438 338.546875 150.492188 342.808594 185.808594 342.808594 C 221.125 342.808594 254.472656 338.546875 279.703125 330.804688 C 317.058594 319.339844 324.898438 303.734375 324.898438 292.660156 Z M 101.886719 116.027344 C 101.886719 69.753906 139.535156 32.105469 185.808594 32.105469 C 232.082031 32.105469 269.726562 69.753906 269.726562 116.027344 C 269.726562 144.1875 236.640625 203.121094 208.039062 248.148438 C 207.789062 248.492188 207.558594 248.851562 207.351562 249.222656 C 199.558594 261.464844 192.121094 272.640625 185.808594 281.839844 C 156.199219 238.699219 101.886719 152.105469 101.886719 116.027344 Z M 185.808594 321.265625 C 152.574219 321.265625 121.472656 317.335938 98.234375 310.203125 C 75.589844 303.253906 68.261719 295.382812 68.261719 292.660156 C 68.261719 291.027344 72.054688 284.890625 88.90625 278.332031 C 104.1875 272.386719 125.460938 267.957031 149.289062 265.722656 C 164.757812 289.691406 176.878906 306.664062 177.050781 306.902344 C 179.070312 309.726562 182.332031 311.40625 185.808594 311.40625 C 189.285156 311.40625 192.546875 309.726562 194.570312 306.902344 C 194.738281 306.664062 206.859375 289.691406 222.328125 265.722656 C 246.058594 267.949219 267.25 272.351562 282.527344 278.261719 C 299.527344 284.84375 303.355469 291.015625 303.355469 292.660156 C 303.355469 295.382812 296.027344 303.257812 273.382812 310.203125 C 250.144531 317.335938 219.042969 321.265625 185.808594 321.265625 Z M 185.808594 321.265625 " fill-opacity="1" fill-rule="nonzero"/></g></svg>