<svg xmlns="http://www.w3.org/2000/svg" xmlns:xlink="http://www.w3.org/1999/xlink" width="500" zoomAndPan="magnify" viewBox="0 0 375 374.999991" height="500" preserveAspectRatio="xMidYMid meet" version="1.0"><defs><clipPath id="682bd7f4f1"><path d="M 3.234375 3.234375 L 371.484375 3.234375 L 371.484375 371.484375 L 3.234375 371.484375 Z M 3.234375 3.234375 " clip-rule="nonzero"/></clipPath></defs><g clip-path="url(#682bd7f4f1)"><path fill="#1b9df0" d="M 371.484375 187.359375 C 371.484375 190.375 371.410156 193.386719 371.261719 196.394531 C 371.117188 199.40625 370.894531 202.410156 370.597656 205.40625 C 370.304688 208.40625 369.933594 211.394531 369.492188 214.378906 C 369.050781 217.359375 368.535156 220.324219 367.949219 223.28125 C 367.359375 226.238281 366.699219 229.175781 365.96875 232.097656 C 365.234375 235.023438 364.433594 237.925781 363.558594 240.808594 C 362.683594 243.691406 361.738281 246.554688 360.722656 249.390625 C 359.707031 252.226562 358.621094 255.039062 357.46875 257.820312 C 356.316406 260.605469 355.09375 263.359375 353.808594 266.082031 C 352.519531 268.808594 351.164062 271.5 349.742188 274.15625 C 348.324219 276.8125 346.839844 279.433594 345.289062 282.019531 C 343.742188 284.605469 342.128906 287.148438 340.453125 289.65625 C 338.78125 292.160156 337.046875 294.625 335.25 297.042969 C 333.457031 299.464844 331.601562 301.839844 329.691406 304.167969 C 327.777344 306.496094 325.8125 308.777344 323.789062 311.011719 C 321.765625 313.242188 319.6875 315.425781 317.554688 317.554688 C 315.425781 319.6875 313.242188 321.765625 311.011719 323.789062 C 308.777344 325.8125 306.496094 327.777344 304.167969 329.691406 C 301.839844 331.601562 299.464844 333.457031 297.042969 335.25 C 294.625 337.046875 292.160156 338.78125 289.65625 340.453125 C 287.148438 342.128906 284.605469 343.742188 282.019531 345.289062 C 279.433594 346.839844 276.8125 348.324219 274.15625 349.742188 C 271.5 351.164062 268.808594 352.519531 266.082031 353.808594 C 263.359375 355.09375 260.605469 356.316406 257.820312 357.46875 C 255.039062 358.621094 252.226562 359.707031 249.390625 360.722656 C 246.554688 361.738281 243.691406 362.683594 240.808594 363.558594 C 237.925781 364.433594 235.023438 365.234375 232.097656 365.96875 C 229.175781 366.699219 226.238281 367.359375 223.28125 367.949219 C 220.324219 368.535156 217.359375 369.050781 214.378906 369.492188 C 211.394531 369.933594 208.40625 370.304688 205.40625 370.597656 C 202.410156 370.894531 199.40625 371.117188 196.394531 371.261719 C 193.386719 371.410156 190.375 371.484375 187.359375 371.484375 C 184.347656 371.484375 181.335938 371.410156 178.324219 371.261719 C 175.316406 371.117188 172.3125 370.894531 169.3125 370.597656 C 166.3125 370.304688 163.324219 369.933594 160.34375 369.492188 C 157.363281 369.050781 154.394531 368.535156 151.4375 367.949219 C 148.484375 367.359375 145.542969 366.699219 142.621094 365.96875 C 139.699219 365.234375 136.796875 364.433594 133.910156 363.558594 C 131.027344 362.683594 128.167969 361.738281 125.332031 360.722656 C 122.492188 359.707031 119.683594 358.621094 116.898438 357.46875 C 114.113281 356.316406 111.359375 355.09375 108.636719 353.808594 C 105.914062 352.519531 103.222656 351.164062 100.5625 349.742188 C 97.90625 348.324219 95.285156 346.839844 92.699219 345.289062 C 90.117188 343.742188 87.570312 342.128906 85.066406 340.453125 C 82.558594 338.78125 80.097656 337.046875 77.675781 335.25 C 75.257812 333.457031 72.882812 331.601562 70.550781 329.691406 C 68.222656 327.777344 65.941406 325.8125 63.710938 323.789062 C 61.476562 321.765625 59.296875 319.6875 57.164062 317.554688 C 55.035156 315.425781 52.957031 313.242188 50.933594 311.011719 C 48.910156 308.777344 46.941406 306.496094 45.03125 304.167969 C 43.117188 301.839844 41.265625 299.464844 39.46875 297.042969 C 37.675781 294.625 35.941406 292.160156 34.265625 289.65625 C 32.59375 287.148438 30.980469 284.605469 29.429688 282.019531 C 27.882812 279.433594 26.398438 276.8125 24.976562 274.15625 C 23.554688 271.5 22.203125 268.808594 20.914062 266.082031 C 19.625 263.359375 18.402344 260.605469 17.25 257.820312 C 16.097656 255.039062 15.015625 252.226562 14 249.390625 C 12.984375 246.554688 12.039062 243.691406 11.164062 240.808594 C 10.289062 237.925781 9.484375 235.023438 8.753906 232.097656 C 8.019531 229.175781 7.359375 226.238281 6.773438 223.28125 C 6.183594 220.324219 5.671875 217.359375 5.226562 214.378906 C 4.785156 211.394531 4.417969 208.40625 4.121094 205.40625 C 3.828125 202.410156 3.605469 199.40625 3.457031 196.394531 C 3.308594 193.386719 3.234375 190.375 3.234375 187.359375 C 3.234375 184.347656 3.308594 181.335938 3.457031 178.324219 C 3.605469 175.316406 3.828125 172.3125 4.121094 169.3125 C 4.417969 166.3125 4.785156 163.324219 5.226562 160.34375 C 5.671875 157.363281 6.183594 154.394531 6.773438 151.4375 C 7.359375 148.484375 8.019531 145.542969 8.753906 142.621094 C 9.484375 139.699219 10.289062 136.796875 11.164062 133.910156 C 12.039062 131.027344 12.984375 128.167969 14 125.332031 C 15.015625 122.492188 16.097656 119.683594 17.25 116.898438 C 18.402344 114.113281 19.625 111.359375 20.914062 108.636719 C 22.203125 105.914062 23.554688 103.222656 24.976562 100.5625 C 26.398438 97.90625 27.882812 95.285156 29.429688 92.699219 C 30.980469 90.117188 32.59375 87.570312 34.265625 85.066406 C 35.941406 82.558594 37.675781 80.097656 39.46875 77.675781 C 41.265625 75.257812 43.117188 72.882812 45.03125 70.550781 C 46.941406 68.222656 48.910156 65.941406 50.933594 63.710938 C 52.957031 61.476562 55.035156 59.296875 57.164062 57.164062 C 59.296875 55.035156 61.476562 52.957031 63.710938 50.933594 C 65.941406 48.910156 68.222656 46.941406 70.550781 45.03125 C 72.882812 43.117188 75.257812 41.265625 77.675781 39.46875 C 80.097656 37.675781 82.558594 35.941406 85.066406 34.265625 C 87.570312 32.59375 90.117188 30.980469 92.699219 29.429688 C 95.285156 27.882812 97.90625 26.398438 100.5625 24.976562 C 103.222656 23.554688 105.914062 22.203125 108.636719 20.914062 C 111.359375 19.625 114.113281 18.402344 116.898438 17.25 C 119.683594 16.097656 122.492188 15.015625 125.332031 14 C 128.167969 12.984375 131.027344 12.039062 133.910156 11.164062 C 136.796875 10.289062 139.699219 9.484375 142.621094 8.753906 C 145.542969 8.019531 148.484375 7.359375 151.4375 6.773438 C 154.394531 6.183594 157.363281 5.671875 160.34375 5.226562 C 163.324219 4.785156 166.3125 4.417969 169.3125 4.121094 C 172.3125 3.828125 175.316406 3.605469 178.324219 3.457031 C 181.335938 3.308594 184.347656 3.234375 187.359375 3.234375 C 190.375 3.234375 193.386719 3.308594 196.394531 3.457031 C 199.40625 3.605469 202.410156 3.828125 205.40625 4.121094 C 208.40625 4.417969 211.394531 4.785156 214.378906 5.226562 C 217.359375 5.671875 220.324219 6.183594 223.28125 6.773438 C 226.238281 7.359375 229.175781 8.019531 232.097656 8.753906 C 235.023438 9.484375 237.925781 10.289062 240.808594 11.164062 C 243.691406 12.039062 246.554688 12.984375 249.390625 14 C 252.226562 15.015625 255.039062 16.097656 257.820312 17.25 C 260.605469 18.402344 263.359375 19.625 266.082031 20.914062 C 268.808594 22.203125 271.5 23.554688 274.15625 24.976562 C 276.8125 26.398438 279.433594 27.882812 282.019531 29.429688 C 284.605469 30.980469 287.148438 32.59375 289.65625 34.265625 C 292.160156 35.941406 294.625 37.675781 297.042969 39.46875 C 299.464844 41.265625 301.839844 43.117188 304.167969 45.03125 C 306.496094 46.941406 308.777344 48.910156 311.011719 50.933594 C 313.242188 52.957031 315.425781 55.035156 317.554688 57.164062 C 319.6875 59.296875 321.765625 61.476562 323.789062 63.710938 C 325.8125 65.941406 327.777344 68.222656 329.691406 70.550781 C 331.601562 72.882812 333.457031 75.257812 335.25 77.675781 C 337.046875 80.097656 338.78125 82.558594 340.453125 85.066406 C 342.128906 87.570312 343.742188 90.117188 345.289062 92.699219 C 346.839844 95.285156 348.324219 97.90625 349.742188 100.5625 C 351.164062 103.222656 352.519531 105.914062 353.808594 108.636719 C 355.09375 111.359375 356.316406 114.113281 357.46875 116.898438 C 358.621094 119.683594 359.707031 122.492188 360.722656 125.332031 C 361.738281 128.167969 362.683594 131.027344 363.558594 133.910156 C 364.429688 136.796875 365.234375 139.699219 365.96875 142.621094 C 366.699219 145.542969 367.359375 148.484375 367.949219 151.4375 C 368.535156 154.394531 369.050781 157.363281 369.492188 160.34375 C 369.933594 163.324219 370.304688 166.3125 370.597656 169.3125 C 370.894531 172.3125 371.117188 175.316406 371.261719 178.324219 C 371.410156 181.335938 371.484375 184.347656 371.484375 187.359375 Z M 371.484375 187.359375 " fill-opacity="1" fill-rule="nonzero"/></g><path fill="#ffffff" d="M 153.664062 284.484375 C 235.324219 284.484375 279.976562 216.820312 279.976562 158.175781 C 279.976562 156.242188 279.976562 154.308594 279.882812 152.46875 C 288.535156 146.207031 296.085938 138.382812 302.070312 129.453125 C 294.152344 132.953125 285.589844 135.34375 276.570312 136.449219 C 285.773438 130.925781 292.773438 122.273438 296.085938 111.867188 C 287.523438 116.933594 278.042969 120.613281 267.914062 122.640625 C 259.8125 113.988281 248.304688 108.648438 235.507812 108.648438 C 211.019531 108.648438 191.136719 128.53125 191.136719 153.019531 C 191.136719 156.519531 191.503906 159.925781 192.332031 163.148438 C 155.414062 161.308594 122.734375 143.628906 100.820312 116.75 C 97.046875 123.285156 94.835938 130.925781 94.835938 139.027344 C 94.835938 154.402344 102.664062 168.027344 114.632812 175.945312 C 107.359375 175.761719 100.546875 173.734375 94.5625 170.421875 C 94.5625 170.605469 94.5625 170.789062 94.5625 170.972656 C 94.5625 192.515625 109.84375 210.375 130.191406 214.519531 C 126.507812 215.53125 122.546875 216.082031 118.496094 216.082031 C 115.644531 216.082031 112.882812 215.808594 110.121094 215.253906 C 115.734375 232.929688 132.121094 245.726562 151.546875 246.097656 C 136.359375 257.972656 117.207031 265.0625 96.402344 265.0625 C 92.8125 265.0625 89.3125 264.878906 85.816406 264.417969 C 105.242188 277.121094 128.625 284.484375 153.664062 284.484375 " fill-opacity="1" fill-rule="nonzero"/></svg>