<svg xmlns="http://www.w3.org/2000/svg" xmlns:xlink="http://www.w3.org/1999/xlink" width="500" zoomAndPan="magnify" viewBox="0 0 375 374.999991" height="500" preserveAspectRatio="xMidYMid meet" version="1.0"><defs><clipPath id="ee19a3f4bd"><path d="M 4.984375 4.335938 L 371.734375 4.335938 L 371.734375 371.085938 L 4.984375 371.085938 Z M 4.984375 4.335938 " clip-rule="nonzero"/></clipPath></defs><g clip-path="url(#ee19a3f4bd)"><path fill="#ff0000" d="M 371.734375 187.710938 C 371.734375 288.984375 289.636719 371.085938 188.359375 371.085938 C 87.085938 371.085938 4.984375 288.984375 4.984375 187.710938 C 4.984375 86.433594 87.085938 4.335938 188.359375 4.335938 C 289.636719 4.335938 371.734375 86.433594 371.734375 187.710938 Z M 371.734375 187.710938 " fill-opacity="1" fill-rule="nonzero"/></g><path fill="#bf0000" d="M 367.863281 225.34375 C 353.027344 296.453125 297.015625 352.441406 225.894531 367.234375 L 102.695312 244.035156 L 273.6875 131.171875 Z M 367.863281 225.34375 " fill-opacity="1" fill-rule="nonzero"/><path fill="#ffffff" d="M 279.894531 141.722656 C 277.691406 133.5 271.226562 127.035156 263 124.835938 C 248.109375 120.835938 188.359375 120.835938 188.359375 120.835938 C 188.359375 120.835938 128.613281 120.835938 113.71875 124.832031 C 105.496094 127.035156 99.03125 133.496094 96.828125 141.722656 C 92.832031 156.617188 92.832031 187.710938 92.832031 187.710938 C 92.832031 187.710938 92.832031 218.804688 96.828125 233.695312 C 99.03125 241.921875 105.492188 248.386719 113.71875 250.585938 C 128.613281 254.582031 188.359375 254.582031 188.359375 254.582031 C 188.359375 254.582031 248.109375 254.582031 263 250.585938 C 271.226562 248.382812 277.691406 241.921875 279.894531 233.695312 C 283.886719 218.804688 283.886719 187.710938 283.886719 187.710938 C 283.886719 187.710938 283.871094 156.617188 279.894531 141.722656 Z M 279.894531 141.722656 " fill-opacity="1" fill-rule="nonzero"/><path fill="#ff0000" d="M 169.238281 216.367188 L 218.871094 187.714844 L 169.238281 159.058594 Z M 169.238281 216.367188 " fill-opacity="1" fill-rule="nonzero"/></svg>