<svg xmlns="http://www.w3.org/2000/svg" xmlns:xlink="http://www.w3.org/1999/xlink" width="500" zoomAndPan="magnify" viewBox="0 0 375 374.999991" height="500" preserveAspectRatio="xMidYMid meet" version="1.0"><defs><clipPath id="031ac1b5b9"><path d="M 3.683594 3.683594 L 371.183594 3.683594 L 371.183594 369 L 3.683594 369 Z M 3.683594 3.683594 " clip-rule="nonzero"/></clipPath><clipPath id="da0c89b52d"><path d="M 112 75 L 270 75 L 270 371.183594 L 112 371.183594 Z M 112 75 " clip-rule="nonzero"/></clipPath></defs><g clip-path="url(#031ac1b5b9)"><path fill="#1877f2" d="M 371.183594 187.433594 C 371.183594 85.953125 288.917969 3.683594 187.433594 3.683594 C 85.953125 3.683594 3.683594 85.953125 3.683594 187.433594 C 3.683594 279.148438 70.878906 355.167969 158.722656 368.953125 L 158.722656 240.550781 L 112.070312 240.550781 L 112.070312 187.433594 L 158.722656 187.433594 L 158.722656 146.953125 C 158.722656 100.898438 186.15625 75.460938 228.128906 75.460938 C 248.234375 75.460938 269.261719 79.050781 269.261719 79.050781 L 269.261719 124.269531 L 246.089844 124.269531 C 223.265625 124.269531 216.144531 138.4375 216.144531 152.964844 L 216.144531 187.433594 L 267.109375 187.433594 L 258.960938 240.550781 L 216.144531 240.550781 L 216.144531 368.953125 C 303.992188 355.167969 371.183594 279.148438 371.183594 187.433594 " fill-opacity="1" fill-rule="nonzero"/></g><g clip-path="url(#da0c89b52d)"><path fill="#ffffff" d="M 258.960938 240.550781 L 267.109375 187.433594 L 216.144531 187.433594 L 216.144531 152.964844 C 216.144531 138.4375 223.265625 124.269531 246.089844 124.269531 L 269.261719 124.269531 L 269.261719 79.050781 C 269.261719 79.050781 248.234375 75.460938 228.128906 75.460938 C 186.15625 75.460938 158.722656 100.898438 158.722656 146.953125 L 158.722656 187.433594 L 112.070312 187.433594 L 112.070312 240.550781 L 158.722656 240.550781 L 158.722656 368.953125 C 168.078125 370.421875 177.667969 371.183594 187.433594 371.183594 C 197.203125 371.183594 206.789062 370.421875 216.144531 368.953125 L 216.144531 240.550781 L 258.960938 240.550781 " fill-opacity="1" fill-rule="nonzero"/></g></svg>